<?xml version="1.0"?>
<svg width="94" height="100" viewBox="0 0 94 100" fill="none" xmlns="http://www.w3.org/2000/svg">
<path d="M83.6668 70H81.0568C79.2264 70.0017 77.4214 70.4277 75.7835 71.245C73.4004 72.4296 70.6 72.4296 68.2168 71.245C67.2662 70.7785 66.2572 70.4421 65.2168 70.245L68.4652 45H72.0002C72.9206 45 73.6668 44.2537 73.6668 43.3333V36.6667C73.6668 35.7463 72.9206 35 72.0002 35H65.3335V30C65.3335 29.5579 65.1577 29.1342 64.8452 28.8217L57.0002 20.9767V15.8L59.5268 13.78L63.8418 22.4117L66.8252 20.9217L62.1885 11.65L64.2502 10H70.3335C71.2539 10 72.0002 9.25375 72.0002 8.33333V1.66667C72.0002 0.74625 71.2539 0 70.3335 0H53.6668C45.3868 0.01 38.6768 6.72 38.6668 15C38.6668 15.9204 39.4131 16.6667 40.3335 16.6667H43.6668V20.9767L39.1552 25.4883C38.8427 25.8008 38.6668 26.2246 38.6668 26.6667V35H35.3335V21.6667C35.331 21.4602 35.2897 21.2562 35.2118 21.065C35.1814 21.0002 35.1468 20.9373 35.1085 20.8767C35.0685 20.7894 35.0216 20.7052 34.9685 20.625L28.6668 12.75V1.66667C28.6668 0.74625 27.9206 0 27.0002 0H17.0002C16.0797 0 15.3335 0.74625 15.3335 1.66667V12.75L9.03183 20.625C8.9787 20.7052 8.93183 20.7894 8.89183 20.8767C8.8535 20.9373 8.81891 21.0002 8.7885 21.065C8.71058 21.2562 8.66933 21.4602 8.66683 21.6667V35H2.00016C1.07975 35 0.333496 35.7463 0.333496 36.6667V43.3333C0.333496 44.2537 1.07975 45 2.00016 45H5.53516L12.0135 95.2133C12.1208 96.0446 12.8287 96.6669 13.6668 96.6667H52.9002C54.7904 98.7854 57.4941 99.9979 60.3335 100H62.9435C64.7739 99.9983 66.5789 99.5723 68.2168 98.755C70.6 97.5704 73.4004 97.5704 75.7835 98.755C77.4214 99.5723 79.2264 99.9983 81.0568 100H83.6668C89.1875 99.9946 93.6614 95.5206 93.6668 90V80C93.6614 74.4794 89.1875 70.0054 83.6668 70ZM65.3335 3.33333H68.6668V6.66667H65.3335V3.33333ZM70.3335 38.3333V41.6667H47.0002V38.3333H70.3335ZM42.1185 13.3333C42.9545 7.59687 47.8697 3.34062 53.6668 3.33333H62.0002V7.53333L54.7485 13.3333H42.1185ZM53.6668 16.6667V20H47.0002V16.6667H53.6668ZM42.0002 27.3567L46.0235 23.3333H54.6435L62.0002 30.69V35H42.0002V27.3567ZM40.3335 38.3333H43.6668V50C43.6633 50.6348 44.0208 51.2162 44.5885 51.5L54.5885 56.5C55.0762 56.7404 55.4458 57.1677 55.6135 57.685C55.7862 58.2402 55.7262 58.8417 55.4468 59.3517C54.9672 60.314 53.7985 60.7052 52.8362 60.2254C52.8347 60.2248 52.8333 60.224 52.8318 60.2233L46.0652 56.84C45.2381 56.4358 44.2402 56.7787 43.836 57.6058C43.7254 57.8325 43.6675 58.0812 43.6668 58.3333V75C43.6668 76.841 42.1745 78.3333 40.3335 78.3333V63.3333H37.0002V78.3333H33.6668V63.3333H30.3335V78.3333H27.0002V63.3333H23.6668V78.3333C21.8258 78.3333 20.3335 76.841 20.3335 75V38.3333H40.3335ZM18.6668 3.33333H25.3335V11.6667H18.6668V3.33333ZM17.8002 15H26.2002L30.2002 20H13.8002L17.8002 15ZM12.0002 23.3333H32.0002V35H12.0002V23.3333ZM3.66683 41.6667V38.3333H17.0002V41.6667H3.66683ZM50.3335 80V90C50.3364 91.1362 50.5337 92.2635 50.9168 93.3333H15.1318L8.89516 45H17.0002V75C17.0002 78.6819 19.985 81.6667 23.6668 81.6667H40.3335C44.0154 81.6667 47.0002 78.6819 47.0002 75V61.03L51.3535 63.2067C53.9841 64.505 57.1691 63.425 58.4675 60.7944C58.4729 60.7835 58.4781 60.7725 58.4835 60.7617C59.1291 59.4819 59.2389 57.9975 58.7885 56.6367C58.3443 55.2752 57.3714 54.1498 56.0885 53.5133L47.0002 48.97V45H65.1052L61.8785 70H60.3335C54.8129 70.0054 50.3389 74.4794 50.3335 80ZM90.3335 90C90.3335 93.6819 87.3487 96.6667 83.6668 96.6667H81.0568C79.7441 96.6648 78.4497 96.3592 77.2752 95.7733C73.9522 94.1223 70.0481 94.1223 66.7252 95.7733C65.5506 96.3592 64.2562 96.6648 62.9435 96.6667H60.3335C56.6516 96.6667 53.6668 93.6819 53.6668 90V87.4333C55.4945 89.0848 57.8702 89.9994 60.3335 90H62.9435C64.7739 89.9983 66.5789 89.5723 68.2168 88.755C70.6 87.5704 73.4004 87.5704 75.7835 88.755C77.4214 89.5723 79.2264 89.9983 81.0568 90H83.6668C86.1302 89.9994 88.5058 89.0848 90.3335 87.4333V90ZM83.6668 86.6667H81.0568C79.7441 86.6648 78.4497 86.3592 77.2752 85.7733C73.9522 84.1223 70.0481 84.1223 66.7252 85.7733C65.5506 86.3592 64.2562 86.6648 62.9435 86.6667H60.3335C56.6516 86.6667 53.6668 83.6819 53.6668 80C53.6668 76.3181 56.6516 73.3333 60.3335 73.3333H62.9435C64.2562 73.3352 65.5506 73.6408 66.7252 74.2267C70.0483 75.8767 73.952 75.8767 77.2752 74.2267C78.4497 73.6408 79.7441 73.3352 81.0568 73.3333H83.6668C87.3487 73.3333 90.3335 76.3181 90.3335 80C90.3335 83.6819 87.3487 86.6667 83.6668 86.6667Z" fill="white"/>
</svg>
