<svg width="94" height="100" viewBox="0 0 94 100" fill="none" xmlns="http://www.w3.org/2000/svg">
<path d="M83.6667 70H81.0567C79.2263 70.0017 77.4213 70.4277 75.7834 71.245C73.4002 72.4296 70.5998 72.4296 68.2167 71.245C67.2661 70.7785 66.2571 70.4421 65.2167 70.245L68.465 45H72C72.9205 45 73.6667 44.2537 73.6667 43.3333V36.6667C73.6667 35.7463 72.9205 35 72 35H65.3334V30C65.3334 29.5579 65.1575 29.1342 64.845 28.8217L57 20.9767V15.8L59.5267 13.78L63.8417 22.4117L66.825 20.9217L62.1884 11.65L64.25 10H70.3334C71.2538 10 72 9.25375 72 8.33333V1.66667C72 0.74625 71.2538 0 70.3334 0H53.6667C45.3867 0.01 38.6767 6.72 38.6667 15C38.6667 15.9204 39.413 16.6667 40.3334 16.6667H43.6667V20.9767L39.155 25.4883C38.8425 25.8008 38.6667 26.2246 38.6667 26.6667V35H35.3334V21.6667C35.3309 21.4602 35.2896 21.2562 35.2117 21.065C35.1813 21.0002 35.1467 20.9373 35.1084 20.8767C35.0684 20.7894 35.0215 20.7052 34.9684 20.625L28.6667 12.75V1.66667C28.6667 0.74625 27.9205 0 27 0H17C16.0796 0 15.3334 0.74625 15.3334 1.66667V12.75L9.03171 20.625C8.97858 20.7052 8.93171 20.7894 8.89171 20.8767C8.85337 20.9373 8.81879 21.0002 8.78837 21.065C8.71046 21.2562 8.66921 21.4602 8.66671 21.6667V35H2.00004C1.07962 35 0.333374 35.7463 0.333374 36.6667V43.3333C0.333374 44.2537 1.07962 45 2.00004 45H5.53504L12.0134 95.2133C12.1207 96.0446 12.8286 96.6669 13.6667 96.6667H52.9C54.7902 98.7854 57.494 99.9979 60.3334 100H62.9434C64.7738 99.9983 66.5788 99.5723 68.2167 98.755C70.5998 97.5704 73.4002 97.5704 75.7834 98.755C77.4213 99.5723 79.2263 99.9983 81.0567 100H83.6667C89.1873 99.9946 93.6613 95.5206 93.6667 90V80C93.6613 74.4794 89.1873 70.0054 83.6667 70ZM65.3334 3.33333H68.6667V6.66667H65.3334V3.33333ZM70.3334 38.3333V41.6667H47V38.3333H70.3334ZM42.1184 13.3333C42.9544 7.59687 47.8696 3.34062 53.6667 3.33333H62V7.53333L54.7484 13.3333H42.1184ZM53.6667 16.6667V20H47V16.6667H53.6667ZM42 27.3567L46.0234 23.3333H54.6434L62 30.69V35H42V27.3567ZM40.3334 38.3333H43.6667V50C43.6632 50.6348 44.0207 51.2162 44.5884 51.5L54.5884 56.5C55.0761 56.7404 55.4457 57.1677 55.6134 57.685C55.7861 58.2402 55.7261 58.8417 55.4467 59.3517C54.9671 60.314 53.7984 60.7052 52.8361 60.2254C52.8346 60.2248 52.8332 60.224 52.8317 60.2233L46.065 56.84C45.238 56.4358 44.24 56.7787 43.8359 57.6058C43.7252 57.8325 43.6673 58.0812 43.6667 58.3333V75C43.6667 76.841 42.1744 78.3333 40.3334 78.3333V63.3333H37V78.3333H33.6667V63.3333H30.3334V78.3333H27V63.3333H23.6667V78.3333C21.8257 78.3333 20.3334 76.841 20.3334 75V38.3333H40.3334ZM18.6667 3.33333H25.3334V11.6667H18.6667V3.33333ZM17.8 15H26.2L30.2 20H13.8L17.8 15ZM12 23.3333H32V35H12V23.3333ZM3.66671 41.6667V38.3333H17V41.6667H3.66671ZM50.3334 80V90C50.3363 91.1362 50.5336 92.2635 50.9167 93.3333H15.1317L8.89504 45H17V75C17 78.6819 19.9848 81.6667 23.6667 81.6667H40.3334C44.0152 81.6667 47 78.6819 47 75V61.03L51.3534 63.2067C53.984 64.505 57.169 63.425 58.4673 60.7944C58.4727 60.7835 58.478 60.7725 58.4834 60.7617C59.129 59.4819 59.2388 57.9975 58.7884 56.6367C58.3442 55.2752 57.3713 54.1498 56.0884 53.5133L47 48.97V45H65.105L61.8784 70H60.3334C54.8127 70.0054 50.3388 74.4794 50.3334 80ZM90.3334 90C90.3334 93.6819 87.3486 96.6667 83.6667 96.6667H81.0567C79.744 96.6648 78.4496 96.3592 77.275 95.7733C73.9521 94.1223 70.048 94.1223 66.725 95.7733C65.5505 96.3592 64.2561 96.6648 62.9434 96.6667H60.3334C56.6515 96.6667 53.6667 93.6819 53.6667 90V87.4333C55.4944 89.0848 57.87 89.9994 60.3334 90H62.9434C64.7738 89.9983 66.5788 89.5723 68.2167 88.755C70.5998 87.5704 73.4002 87.5704 75.7834 88.755C77.4213 89.5723 79.2263 89.9983 81.0567 90H83.6667C86.13 89.9994 88.5057 89.0848 90.3334 87.4333V90ZM83.6667 86.6667H81.0567C79.744 86.6648 78.4496 86.3592 77.275 85.7733C73.9521 84.1223 70.048 84.1223 66.725 85.7733C65.5505 86.3592 64.2561 86.6648 62.9434 86.6667H60.3334C56.6515 86.6667 53.6667 83.6819 53.6667 80C53.6667 76.3181 56.6515 73.3333 60.3334 73.3333H62.9434C64.2561 73.3352 65.5505 73.6408 66.725 74.2267C70.0482 75.8767 73.9519 75.8767 77.275 74.2267C78.4496 73.6408 79.744 73.3352 81.0567 73.3333H83.6667C87.3486 73.3333 90.3334 76.3181 90.3334 80C90.3334 83.6819 87.3486 86.6667 83.6667 86.6667Z" fill="#001535"/>
</svg>
