<?xml version="1.0"?>
<svg width="100" height="100" viewBox="0 0 100 100" fill="none" xmlns="http://www.w3.org/2000/svg">
<path d="M50 0C22.7564 0 0 22.6838 0 50C0 77.2424 22.6824 100 50 100C77.2287 100 100 77.2682 100 50C100 22.7574 77.3176 0 50 0ZM50 94.1406C38.3877 94.1406 27.3521 89.5002 18.926 81.074C2.19824 64.3463 1.53223 38.5205 16.9217 21.0648L31.2084 35.3516H29.4922C24.6459 35.3516 20.7031 39.2943 20.7031 44.1406V55.8594C20.7031 60.7057 24.6459 64.6484 29.4922 64.6484H40.2344L62.8906 81.6406C64.8186 83.0867 67.5781 81.7066 67.5781 79.2969V71.7213L78.9355 83.0787C70.8219 90.2314 60.6547 94.1406 50 94.1406ZM37.0678 41.2109L38.2812 42.4244V58.7891H29.4922C27.8768 58.7891 26.5625 57.4748 26.5625 55.8594V44.1406C26.5625 42.5252 27.8768 41.2109 29.4922 41.2109H37.0678ZM61.7188 65.8619V73.4375L44.1406 60.2539V48.2838L61.7188 65.8619ZM44.1406 39.9975V39.7461L61.7188 26.5625V57.5756L44.1406 39.9975ZM83.0785 78.9352L68.3244 64.1811C74.6281 62.5459 79.2969 56.8082 79.2969 50C79.2969 42.926 74.2562 37.0074 67.5781 35.6463V20.7031C67.5781 18.2908 64.816 16.915 62.8906 18.3594L40.2344 35.3516H39.4947L21.0646 16.9215C29.1781 9.76855 39.3455 5.85938 50 5.85938C61.6123 5.85938 72.6479 10.4998 81.0742 18.926C97.8018 35.6537 98.4678 61.4795 83.0785 78.9352ZM67.5781 58.2852V41.7148C70.9881 42.9242 73.4375 46.1807 73.4375 50C73.4375 53.8193 70.9881 57.0758 67.5781 58.2852Z" fill="white"/>
</svg>
