<?xml version="1.0"?>
<svg width="94" height="94" viewBox="0 0 94 94" fill="none" xmlns="http://www.w3.org/2000/svg">
<path d="M3.25 93.8749H12.625C14.3484 93.8749 15.75 92.4733 15.75 90.7499V87.6249H51.0719C58.9219 87.6249 66.5922 85.4249 73.2484 81.2655C83.2844 74.9921 90.2203 64.7092 92.2781 53.053L92.9562 49.2124C93.2594 47.4967 92.7922 45.7467 91.6719 44.4124C90.5516 43.078 88.9094 42.3124 87.1672 42.3124C86.2156 42.3124 85.3094 42.5483 84.5 42.9608V36.0624H86.0625C86.6937 36.0624 87.2656 35.6811 87.5062 35.0983C87.7484 34.5139 87.6141 33.8421 87.1672 33.3952L74.6672 20.8952C74.0563 20.2842 73.0687 20.2842 72.4578 20.8952L68.875 24.478V3.24987C68.875 2.38737 68.1766 1.68737 67.3125 1.68737H51.6875C50.8234 1.68737 50.125 2.38737 50.125 3.24987V20.4374H43.7938C42.6047 17.8217 41.725 16.2921 41.0188 15.4046L44.9672 5.75455C45.4062 4.69987 45.15 3.51393 44.3141 2.73424C43.4781 1.95299 42.2766 1.78268 41.2562 2.29205L38.3016 3.76861L36.4406 1.28736C35.9703 0.65924 35.2516 0.26549 34.4688 0.20924C33.6844 0.151427 32.9172 0.437365 32.3563 0.995177L29.9797 3.37018L28.4187 1.28736C27.9469 0.657677 27.2281 0.26549 26.4438 0.20924C25.6609 0.151427 24.8906 0.438927 24.3344 0.995177L21.3359 3.99361L16.8297 2.70612C15.7719 2.40299 14.6547 2.76237 13.9719 3.61705C13.2875 4.47174 13.1828 5.64518 13.7063 6.60299L18.4312 15.3264C15.1141 18.3233 11.0625 26.7436 11.0625 34.3952V39.1874C11.0625 44.3577 15.2672 48.5624 20.4375 48.5624H37.625H51.6875H64.1875H80.4094L77.1094 55.1639L68.5172 58.8467C67.5531 55.6233 64.5953 53.2499 61.0625 53.2499H38.5672C30.4359 53.2499 22.6125 55.4905 15.75 59.728V56.3749C15.75 54.6514 14.3484 53.2499 12.625 53.2499H3.25C1.52656 53.2499 0.125 54.6514 0.125 56.3749V90.7499C0.125 92.4733 1.52656 93.8749 3.25 93.8749ZM20.7141 7.06705C21.6594 7.33737 22.6797 7.07486 23.3734 6.37799L26.2062 3.54518L27.7687 5.63111C28.2422 6.25924 28.9625 6.65299 29.7469 6.70768C30.5406 6.75924 31.2969 6.47486 31.8516 5.92018L34.2281 3.54518L36.0109 5.92018C36.7937 6.97018 38.2125 7.30768 39.3891 6.72018L41.6625 5.58268L38.1375 14.1874H33.9031L35.8969 10.1983L33.1016 8.79987L30.4094 14.1874H27.6703L25.4922 9.65612L22.675 11.0108L24.2016 14.1874H21.3672L16.925 5.98424L20.7141 7.06705ZM36.0625 21.9999V45.4374H20.4375C16.9906 45.4374 14.1875 42.6342 14.1875 39.1874V34.3952C14.1875 26.0311 19.3641 18.2311 20.8453 17.3124H38.5438C38.7969 17.6186 39.3703 18.4405 40.3406 20.4374H37.625C36.7609 20.4374 36.0625 21.1374 36.0625 21.9999ZM39.1875 23.5624H50.125V45.4374H39.1875V23.5624ZM73.5625 24.2092L82.2906 32.9374H64.8344L73.5625 24.2092ZM53.25 4.81237H65.75V27.603L59.9578 33.3952C59.5109 33.8421 59.3766 34.5139 59.6188 35.0983C59.8594 35.6811 60.4313 36.0624 61.0625 36.0624H62.625V45.4374H53.25V4.81237ZM65.75 36.0624H81.375V45.4374H78.25V39.1874C78.25 38.3249 77.5516 37.6249 76.6875 37.6249H70.4375C69.5734 37.6249 68.875 38.3249 68.875 39.1874V45.4374H65.75V36.0624ZM75.125 45.4374H72V40.7499H75.125V45.4374ZM38.5672 56.3749H61.0625C63.6469 56.3749 65.75 58.478 65.75 61.0624C65.75 63.6467 63.6469 65.7499 61.0625 65.7499H36.0625V68.8749H61.0625C65.0016 68.8749 68.2359 65.9342 68.7656 62.1389L78.8641 57.8108C79.2047 57.6655 79.4828 57.4046 79.6469 57.0733L84.7031 46.9592C85.175 46.0202 86.1172 45.4374 87.1672 45.4374C87.9828 45.4374 88.7531 45.7952 89.2781 46.4217C89.8031 47.0483 90.0234 47.8671 89.8812 48.6702L89.2031 52.5108C87.2984 63.2967 80.8812 72.8108 71.5922 78.6155C65.4328 82.4655 58.3375 84.4999 51.0719 84.4999H15.75V63.4655C22.4984 58.8374 30.3641 56.3749 38.5672 56.3749ZM3.25 56.3749H12.625L12.6266 90.7499H3.25V56.3749Z" fill="white"/>
</svg>
