<svg width="94" height="94" viewBox="0 0 94 94" fill="none" xmlns="http://www.w3.org/2000/svg">
<path d="M3.25 93.8749H12.625C14.3484 93.8749 15.75 92.4734 15.75 90.7499V87.6249H51.0719C58.9219 87.6249 66.5922 85.4249 73.2484 81.2655C83.2844 74.9921 90.2203 64.7093 92.2781 53.0531L92.9562 49.2124C93.2594 47.4968 92.7922 45.7468 91.6719 44.4124C90.5516 43.0781 88.9094 42.3124 87.1672 42.3124C86.2156 42.3124 85.3094 42.5484 84.5 42.9609V36.0624H86.0625C86.6937 36.0624 87.2656 35.6812 87.5062 35.0984C87.7484 34.514 87.6141 33.8421 87.1672 33.3952L74.6672 20.8952C74.0563 20.2843 73.0687 20.2843 72.4578 20.8952L68.875 24.4781V3.24993C68.875 2.38743 68.1766 1.68743 67.3125 1.68743H51.6875C50.8234 1.68743 50.125 2.38743 50.125 3.24993V20.4374H43.7938C42.6047 17.8218 41.725 16.2921 41.0188 15.4046L44.9672 5.75461C45.4062 4.69993 45.15 3.51399 44.3141 2.7343C43.4781 1.95305 42.2766 1.78274 41.2562 2.29211L38.3016 3.76868L36.4406 1.28743C35.9703 0.659301 35.2516 0.265551 34.4688 0.209301C33.6844 0.151488 32.9172 0.437426 32.3563 0.995238L29.9797 3.37024L28.4187 1.28743C27.9469 0.657738 27.2281 0.265551 26.4438 0.209301C25.6609 0.151488 24.8906 0.438988 24.3344 0.995238L21.3359 3.99368L16.8297 2.70618C15.7719 2.40305 14.6547 2.76243 13.9719 3.61711C13.2875 4.4718 13.1828 5.64524 13.7063 6.60305L18.4312 15.3265C15.1141 18.3234 11.0625 26.7437 11.0625 34.3952V39.1874C11.0625 44.3577 15.2672 48.5624 20.4375 48.5624H37.625H51.6875H64.1875H80.4094L77.1094 55.164L68.5172 58.8468C67.5531 55.6234 64.5953 53.2499 61.0625 53.2499H38.5672C30.4359 53.2499 22.6125 55.4906 15.75 59.7281V56.3749C15.75 54.6515 14.3484 53.2499 12.625 53.2499H3.25C1.52656 53.2499 0.125 54.6515 0.125 56.3749V90.7499C0.125 92.4734 1.52656 93.8749 3.25 93.8749ZM20.7141 7.06711C21.6594 7.33743 22.6797 7.07493 23.3734 6.37805L26.2062 3.54524L27.7687 5.63118C28.2422 6.2593 28.9625 6.65305 29.7469 6.70774C30.5406 6.7593 31.2969 6.47493 31.8516 5.92024L34.2281 3.54524L36.0109 5.92024C36.7937 6.97024 38.2125 7.30774 39.3891 6.72024L41.6625 5.58274L38.1375 14.1874H33.9031L35.8969 10.1984L33.1016 8.79993L30.4094 14.1874H27.6703L25.4922 9.65618L22.675 11.0109L24.2016 14.1874H21.3672L16.925 5.9843L20.7141 7.06711ZM36.0625 21.9999V45.4374H20.4375C16.9906 45.4374 14.1875 42.6343 14.1875 39.1874V34.3952C14.1875 26.0312 19.3641 18.2312 20.8453 17.3124H38.5438C38.7969 17.6187 39.3703 18.4406 40.3406 20.4374H37.625C36.7609 20.4374 36.0625 21.1374 36.0625 21.9999ZM39.1875 23.5624H50.125V45.4374H39.1875V23.5624ZM73.5625 24.2093L82.2906 32.9374H64.8344L73.5625 24.2093ZM53.25 4.81243H65.75V27.6031L59.9578 33.3952C59.5109 33.8421 59.3766 34.514 59.6188 35.0984C59.8594 35.6812 60.4313 36.0624 61.0625 36.0624H62.625V45.4374H53.25V4.81243ZM65.75 36.0624H81.375V45.4374H78.25V39.1874C78.25 38.3249 77.5516 37.6249 76.6875 37.6249H70.4375C69.5734 37.6249 68.875 38.3249 68.875 39.1874V45.4374H65.75V36.0624ZM75.125 45.4374H72V40.7499H75.125V45.4374ZM38.5672 56.3749H61.0625C63.6469 56.3749 65.75 58.4781 65.75 61.0624C65.75 63.6468 63.6469 65.7499 61.0625 65.7499H36.0625V68.8749H61.0625C65.0016 68.8749 68.2359 65.9343 68.7656 62.139L78.8641 57.8109C79.2047 57.6656 79.4828 57.4046 79.6469 57.0734L84.7031 46.9593C85.175 46.0202 86.1172 45.4374 87.1672 45.4374C87.9828 45.4374 88.7531 45.7952 89.2781 46.4218C89.8031 47.0484 90.0234 47.8671 89.8812 48.6702L89.2031 52.5109C87.2984 63.2968 80.8812 72.8109 71.5922 78.6156C65.4328 82.4656 58.3375 84.4999 51.0719 84.4999H15.75V63.4655C22.4984 58.8374 30.3641 56.3749 38.5672 56.3749ZM3.25 56.3749H12.625L12.6266 90.7499H3.25V56.3749Z" fill="#001535"/>
</svg>
