<svg width="100" height="100" viewBox="0 0 100 100" fill="none" xmlns="http://www.w3.org/2000/svg">
<path d="M98.3334 89.9999H93.3334V58.3333C93.3328 57.4128 92.5859 56.6672 91.6655 56.6678C91.1224 56.6683 90.6134 56.9333 90.3018 57.3783L66.9684 90.7116C66.4409 91.4659 66.6249 92.5051 67.3793 93.0324C67.6591 93.228 67.992 93.333 68.3334 93.3332H90.0001V98.3332C90.0001 99.2537 90.7463 99.9999 91.6668 99.9999C92.5872 99.9999 93.3334 99.2537 93.3334 98.3332V93.3332H98.3334C99.2538 93.3332 100 92.587 100 91.6666C100 90.7462 99.2538 89.9999 98.3334 89.9999ZM90.0001 89.9999H71.5334L90.0001 63.6199V89.9999Z" fill="#001535"/>
<path d="M68.3334 96.6668H48.6017L66.9467 75.0651C66.9884 75.0155 67.0273 74.9638 67.0634 74.9101C70.5146 69.8022 69.365 62.8865 64.4467 59.1701C58.4665 54.8732 50.1352 56.238 45.8386 62.2182C44.2092 64.4859 43.333 67.2078 43.3334 70.0001C43.3334 70.9205 44.0796 71.6668 45 71.6668C45.9205 71.6668 46.6667 70.9205 46.6667 70.0001C46.6661 64.4772 51.143 59.9997 56.6657 59.999C58.759 59.9988 60.7996 60.6555 62.5 61.8767C65.9452 64.5165 66.7475 69.3782 64.3334 72.9851L43.73 97.2551C43.1344 97.957 43.2207 99.0086 43.9225 99.6043C44.2236 99.8597 44.6052 99.9999 45 100H68.3334C69.2538 100 70 99.2538 70 98.3334C70 97.413 69.2538 96.6668 68.3334 96.6668Z" fill="#001535"/>
<path d="M45.0367 88.365C45.0715 87.4452 44.3537 86.6715 43.434 86.6367C43.4338 86.6367 43.4335 86.6367 43.4333 86.6367C21.6896 85.8296 4.23771 68.409 3.39167 46.6667H10C10.9204 46.6667 11.6667 45.9204 11.6667 45C11.6667 44.0796 10.9204 43.3333 10 43.3333H3.39167C4.22563 21.6294 21.6292 4.22646 43.3333 3.39333V8.33333C43.3333 9.25375 44.0796 10 45 10C45.9204 10 46.6667 9.25375 46.6667 8.33333V3.39333C68.0737 4.22125 85.3512 21.1725 86.5867 42.56L80.0867 36.06C79.4246 35.4204 78.3696 35.4387 77.73 36.1008C77.1062 36.7467 77.1062 37.7706 77.73 38.4167L87.0333 47.72C87.2085 47.9321 87.4344 48.0965 87.69 48.1983C87.7552 48.2179 87.8215 48.2342 87.8883 48.2467C88.0027 48.2879 88.121 48.3165 88.2417 48.3317C88.2583 48.3317 88.2733 48.3317 88.29 48.3317C88.3067 48.3317 88.3217 48.3317 88.3367 48.3317C88.4635 48.3221 88.589 48.2975 88.71 48.2583C88.7785 48.25 88.8465 48.2373 88.9133 48.22C89.139 48.1398 89.3444 48.0112 89.515 47.8433L98.945 38.4167C99.5844 37.7546 99.5662 36.6996 98.9042 36.06C98.2583 35.4362 97.2344 35.4362 96.5883 36.06L89.9267 42.7167C88.736 18.8271 69.0375 0.0585417 45.1183 0.0233333C45.0767 0.0216667 45.0417 0 45 0C44.9583 0 44.9233 0.0216667 44.8817 0.0233333C20.1213 0.0572917 0.0572917 20.1213 0.0233333 44.8817C0.0233333 44.9233 0 44.9583 0 45C0 45.0417 0.0216667 45.0767 0.0233333 45.1183C0.0647917 69.2677 19.1773 89.0704 43.31 89.9683H43.3717C44.2673 89.9681 45.0027 89.26 45.0367 88.365Z" fill="#001535"/>
<path d="M67.3917 22.6083C66.7408 21.9577 65.6858 21.9577 65.035 22.6083L47.125 40.5167C45.7719 39.9133 44.2262 39.9133 42.8733 40.5167L34.3933 32.0367C33.7312 31.3973 32.676 31.4156 32.0367 32.0777C31.4129 32.7236 31.4129 33.7475 32.0367 34.3933L40.5 42.8567C39.3117 45.3442 40.365 48.3242 42.8527 49.5123C44.7621 50.4244 47.0392 50.0333 48.535 48.5367C50.039 47.0454 50.4263 44.7621 49.4983 42.8583L67.3917 24.965C68.0423 24.3142 68.0423 23.2592 67.3917 22.6083ZM46.1788 46.1779C46.1785 46.1781 46.1785 46.1781 46.1783 46.1783C45.5192 46.8086 44.4808 46.8086 43.8217 46.1783C43.1706 45.5275 43.1706 44.4723 43.8212 43.8213C44.4721 43.1702 45.5273 43.1702 46.1783 43.8208C46.8294 44.4717 46.8294 45.5271 46.1788 46.1779Z" fill="#001535"/>
</svg>
