<svg width="100" height="100" viewBox="0 0 100 100" fill="none" xmlns="http://www.w3.org/2000/svg">
<path d="M98.3334 89.9998H93.3334V58.3331C93.3328 57.4127 92.5859 56.6671 91.6655 56.6677C91.1224 56.6681 90.6134 56.9331 90.3018 57.3781L66.9684 90.7115C66.4409 91.4658 66.6249 92.505 67.3793 93.0323C67.6591 93.2279 67.992 93.3329 68.3334 93.3331H90.0001V98.3331C90.0001 99.2535 90.7463 99.9998 91.6668 99.9998C92.5872 99.9998 93.3334 99.2535 93.3334 98.3331V93.3331H98.3334C99.2538 93.3331 100 92.5869 100 91.6665C100 90.746 99.2538 89.9998 98.3334 89.9998ZM90.0001 89.9998H71.5334L90.0001 63.6198V89.9998Z" fill="white"/>
<path d="M68.3335 96.6667H48.6018L66.9468 75.065C66.9885 75.0155 67.0275 74.9638 67.0635 74.91C70.5147 69.8021 69.3652 62.8865 64.4468 59.17C58.4666 54.8732 50.1354 56.238 45.8387 62.2182C44.2093 64.4859 43.3331 67.2077 43.3335 70C43.3335 70.9205 44.0797 71.6667 45.0002 71.6667C45.9206 71.6667 46.6668 70.9205 46.6668 70C46.6662 64.4771 51.1431 59.9996 56.6658 59.999C58.7591 59.9988 60.7997 60.6555 62.5002 61.8767C65.9454 64.5165 66.7477 69.3782 64.3335 72.985L43.7302 97.2551C43.1345 97.9569 43.2208 99.0086 43.9227 99.6042C44.2237 99.8596 44.6054 99.9998 45.0002 100H68.3335C69.2539 100 70.0002 99.2538 70.0002 98.3334C70.0002 97.413 69.2539 96.6667 68.3335 96.6667Z" fill="white"/>
<path d="M45.0367 88.365C45.0715 87.4452 44.3537 86.6714 43.434 86.6367C43.4338 86.6367 43.4335 86.6367 43.4333 86.6367C21.6896 85.8296 4.23771 68.409 3.39167 46.6667H10C10.9204 46.6667 11.6667 45.9204 11.6667 45C11.6667 44.0796 10.9204 43.3333 10 43.3333H3.39167C4.22563 21.6294 21.6292 4.22646 43.3333 3.39333V8.33333C43.3333 9.25375 44.0796 10 45 10C45.9204 10 46.6667 9.25375 46.6667 8.33333V3.39333C68.0737 4.22125 85.3512 21.1725 86.5867 42.56L80.0867 36.06C79.4246 35.4204 78.3696 35.4387 77.73 36.1008C77.1062 36.7467 77.1062 37.7706 77.73 38.4167L87.0333 47.72C87.2085 47.9321 87.4344 48.0965 87.69 48.1983C87.7552 48.2179 87.8215 48.2342 87.8883 48.2467C88.0027 48.2879 88.121 48.3165 88.2417 48.3317C88.2583 48.3317 88.2733 48.3317 88.29 48.3317C88.3067 48.3317 88.3217 48.3317 88.3367 48.3317C88.4635 48.3221 88.589 48.2975 88.71 48.2583C88.7785 48.25 88.8465 48.2373 88.9133 48.22C89.139 48.1398 89.3444 48.0112 89.515 47.8433L98.945 38.4167C99.5844 37.7546 99.5662 36.6996 98.9042 36.06C98.2583 35.4362 97.2344 35.4362 96.5883 36.06L89.9267 42.7167C88.736 18.8271 69.0375 0.0585417 45.1183 0.0233333C45.0767 0.0216667 45.0417 0 45 0C44.9583 0 44.9233 0.0216667 44.8817 0.0233333C20.1213 0.0572917 0.0572917 20.1213 0.0233333 44.8817C0.0233333 44.9233 0 44.9583 0 45C0 45.0417 0.0216667 45.0767 0.0233333 45.1183C0.0647917 69.2677 19.1773 89.0704 43.31 89.9683H43.3717C44.2673 89.9681 45.0027 89.26 45.0367 88.365Z" fill="white"/>
<path d="M67.3917 22.6083C66.7408 21.9577 65.6858 21.9577 65.035 22.6083L47.125 40.5167C45.7719 39.9133 44.2262 39.9133 42.8733 40.5167L34.3933 32.0367C33.7312 31.3973 32.676 31.4156 32.0367 32.0777C31.4129 32.7235 31.4129 33.7475 32.0367 34.3933L40.5 42.8567C39.3117 45.3442 40.365 48.3242 42.8527 49.5123C44.7621 50.4244 47.0392 50.0333 48.535 48.5367C50.039 47.0454 50.4263 44.7621 49.4983 42.8583L67.3917 24.965C68.0423 24.3142 68.0423 23.2592 67.3917 22.6083ZM46.1788 46.1779C46.1785 46.1781 46.1785 46.1781 46.1783 46.1783C45.5192 46.8085 44.4808 46.8085 43.8217 46.1783C43.1706 45.5275 43.1706 44.4723 43.8212 43.8212C44.4721 43.1702 45.5273 43.1702 46.1783 43.8208C46.8294 44.4717 46.8294 45.5271 46.1788 46.1779Z" fill="white"/>
</svg>
