<svg width="100" height="100" viewBox="0 0 100 100" fill="none" xmlns="http://www.w3.org/2000/svg">
<path d="M85 8.33333C85 3.66699 81.333 0 76.6666 0H15C10.3336 0 6.66663 3.66699 6.66663 8.33333V21.6667H20V91.6667C20 96.333 23.667 100 28.3333 100H85C89.6663 100 93.3333 96.333 93.3333 91.6667V83.3333H85V8.33333ZM20 18.3333H9.99996V8.33333C9.99996 5.49967 12.1663 3.33333 15 3.33333C17.8336 3.33333 20 5.49967 20 8.33333V18.3333ZM23.3333 91.6667V8.33333C23.3333 6.49984 22.6668 4.83317 21.6666 3.33333H76.6666C79.5003 3.33333 81.6666 5.49967 81.6666 8.33333V83.3333H33.3333V91.6667C33.3333 94.5003 31.167 96.6667 28.3333 96.6667C25.4996 96.6667 23.3333 94.5003 23.3333 91.6667ZM90 86.6667V91.6667C90 94.5003 87.8336 96.6667 85 96.6667H35C36.167 95.1668 36.6666 93.5002 36.6666 91.6667V86.6667H90Z" fill="#001535"/>
<path d="M65 53.3333H78.3333V56.6667H65V53.3333Z" fill="#001535"/>
<path d="M26.6666 53.3333H61.6666V56.6667H26.6666V53.3333Z" fill="#001535"/>
<path d="M45 60H78.3333V63.3333H45V60Z" fill="#001535"/>
<path d="M26.6666 60H41.6666V63.3333H26.6666V60Z" fill="#001535"/>
<path d="M56.6666 73.3333H78.3333V76.6667H56.6666V73.3333Z" fill="#001535"/>
<path d="M26.6666 73.3333H53.3333V76.6667H26.6666V73.3333Z" fill="#001535"/>
<path d="M49.6663 33.9998L51.6667 35.3337L53.667 33.9998C59.6663 30 63.3333 23.1665 63.3333 16.0002V10.4997L51.6667 6.66667L40 10.4997V16.0002C40 23.1665 43.667 30 49.6663 33.9998ZM43.3333 12.8337L51.6667 10L60 12.8337V16.0002C60 22.1663 57.0003 27.8337 51.8335 31.333H51.6667L51.4998 31.167C46.333 27.8337 43.3333 22.0003 43.3333 15.8333V12.8337Z" fill="#001535"/>
<path d="M56.6666 16.8335L53.3333 16.4998C52.9996 19.3335 51.4998 22.0003 49.1666 23.667L51.0001 26.4998C54.1666 24.1667 56.333 20.6665 56.6666 16.8335Z" fill="#001535"/>
<path d="M36.6666 66.6667H78.3333V70H36.6666V66.6667Z" fill="#001535"/>
<path d="M26.6666 66.6667H33.3333V70H26.6666V66.6667Z" fill="#001535"/>
<path d="M45 46.6667H78.3333V50H45V46.6667Z" fill="#001535"/>
<path d="M26.6666 46.6667H41.6666V50H26.6666V46.6667Z" fill="#001535"/>
<path d="M40 38.3333H63.3333V41.6667H40V38.3333Z" fill="#001535"/>
</svg>
