<svg width="100" height="100" viewBox="0 0 100 100" fill="none" xmlns="http://www.w3.org/2000/svg">
<g clip-path="url(#clip0)">
<path d="M80.6462 19.3561C85.9834 19.3561 90.3236 15.0151 90.3236 9.67864C90.3236 4.34141 85.9834 0.0012207 80.6462 0.0012207C75.3089 0.0012207 70.9688 4.34141 70.9688 9.67864C70.9688 15.0151 75.3089 19.3561 80.6462 19.3561ZM80.6462 3.22703C84.2043 3.22703 87.0978 6.12049 87.0978 9.67864C87.0978 13.236 84.2043 16.1303 80.6462 16.1303C77.088 16.1303 74.1946 13.236 74.1946 9.67864C74.1946 6.12049 77.088 3.22703 80.6462 3.22703Z" fill="white"/>
<path d="M96.7632 28.8443C96.7214 28.4828 96.5584 28.1474 96.3025 27.893L91.4638 23.0543C91.1622 22.7511 90.7503 22.5818 90.3234 22.5818H70.9688C70.5411 22.5818 70.13 22.7511 69.8284 23.0543L64.9898 27.893C64.733 28.1489 64.57 28.4844 64.5283 28.8443L61.3025 56.2634C61.2489 56.7218 61.393 57.1793 61.6994 57.5227C62.0042 57.8684 62.4428 58.0653 62.9043 58.0653H70.7719L66.1396 98.2017C66.0876 98.6585 66.2317 99.116 66.5381 99.4602C66.8444 99.8035 67.2831 100 67.743 100H77.4203C78.2591 100 78.9568 99.3586 79.0285 98.5214L80.6461 79.1006L82.2637 98.523C82.3346 99.3586 83.0332 100 83.8719 100H93.5492C94.0084 100 94.447 99.8035 94.7542 99.4617C95.0605 99.1192 95.2038 98.66 95.1519 98.2033L90.5203 58.0653H98.3879C98.8486 58.0653 99.288 57.8684 99.5928 57.5251C99.8992 57.1809 100.043 56.7218 99.989 56.265L96.7632 28.8443ZM90.3234 54.8396V32.2591H87.0977V56.4524C87.0977 56.5131 87.1008 56.5761 87.1071 56.6375L91.7394 96.7747H85.3556L82.2543 59.5443C82.1826 58.7072 81.4848 58.0653 80.6461 58.0653C79.8074 58.0653 79.1088 58.7072 79.0379 59.5443L75.9366 96.7747H69.5528L74.1843 56.6375C74.1914 56.5761 74.1946 56.5131 74.1946 56.4524V32.2591H70.9688V54.8396H64.7188L67.6666 29.7768L71.6366 25.8076H89.6556L93.6248 29.7768L96.5734 54.8396H90.3234Z" fill="white"/>
<path d="M55.9801 50.4732L52.7544 47.2474C52.4527 46.9442 52.0408 46.7749 51.614 46.7749H35.4851C35.0575 46.7749 34.6464 46.9442 34.3448 47.2474L31.119 50.4732C30.893 50.6984 30.7402 50.9843 30.6788 51.297L27.453 67.4259C27.3577 67.9 27.4805 68.3922 27.7869 68.7647C28.0932 69.1388 28.5492 69.3553 29.0336 69.3553H35.4851V70.7808L29.0753 98.018C28.9627 98.4968 29.0753 99.0016 29.3817 99.3883C29.688 99.7742 30.1527 100 30.6465 100H38.7109C39.4866 100 40.1529 99.4466 40.2962 98.6834L43.5496 81.3323L46.8029 98.6834C46.9462 99.4466 47.6125 100 48.3882 100H56.4527C56.9457 100 57.4103 99.7742 57.7167 99.3883C58.023 99.0016 58.1364 98.4968 58.023 98.018L51.614 70.7808V69.3553H58.0655C58.5491 69.3553 59.0059 69.1388 59.3122 68.7647C59.6186 68.3922 59.7414 67.9 59.6461 67.4259L56.4204 51.297C56.3589 50.9843 56.2054 50.6984 55.9801 50.4732ZM51.614 66.1296V54.8393H48.3882V70.9682C48.3882 71.0919 48.4024 71.2163 48.43 71.3376L54.4153 96.7744H49.727L45.1349 72.2842C44.9915 71.5211 44.3253 70.9682 43.5496 70.9682C42.7738 70.9682 42.1076 71.5211 41.9642 72.2842L37.3721 96.7744H32.683L38.6684 71.3376C38.6959 71.2163 38.7109 71.0919 38.7109 70.9682V54.8393H35.4851V66.1296H31.0009L33.7462 52.4082L36.153 50.0007H50.9462L53.3545 52.4082L56.0975 66.1296H51.614Z" fill="white"/>
<path d="M23.4768 71.2394L18.6381 68.0136C18.3743 67.8372 18.0608 67.7427 17.7434 67.7427H8.06612C7.74795 67.7427 7.4353 67.8372 7.17068 68.0136L2.33202 71.2394C1.9414 71.4985 1.68545 71.9151 1.6256 72.3813L0.0127078 85.2844C-0.0455702 85.7435 0.0985499 86.205 0.404904 86.5515C0.711258 86.8989 1.15149 87.0973 1.61457 87.0973H5.70428L4.84507 98.2631C4.81121 98.7112 4.96399 99.153 5.26956 99.4822C5.57591 99.813 6.00433 100 6.45323 100H19.3563C19.8044 100 20.2337 99.813 20.54 99.4838C20.8448 99.153 20.9999 98.7112 20.9645 98.2647L20.1045 87.0973H24.195C24.6581 87.0973 25.0983 86.8989 25.4047 86.5515C25.711 86.205 25.8528 85.7435 25.7961 85.2844L24.1832 72.3813C24.1241 71.9151 23.8658 71.4985 23.4768 71.2394ZM19.858 83.8715L19.3516 77.2956L16.1353 77.5421L17.6143 96.7746H14.5177V87.0973H11.2919V96.7746H8.19528L9.67428 77.5436L6.45796 77.2971L5.95157 83.8715H3.44167L4.73718 73.513L8.5544 70.9684H17.256L21.074 73.513L22.3671 83.8715H19.858Z" fill="white"/>
<path d="M35.4854 35.4849C35.4854 39.9314 39.1026 43.5494 43.5499 43.5494C47.9964 43.5494 51.6144 39.9314 51.6144 35.4849C51.6144 31.0376 47.9964 27.4204 43.5499 27.4204C39.1026 27.4204 35.4854 31.0376 35.4854 35.4849ZM48.3886 35.4849C48.3886 38.1524 46.2173 40.3236 43.5499 40.3236C40.8816 40.3236 38.7112 38.1524 38.7112 35.4849C38.7112 32.8167 40.8816 30.6462 43.5499 30.6462C46.2173 30.6462 48.3886 32.8167 48.3886 35.4849Z" fill="white"/>
<path d="M6.45312 58.0654C6.45312 61.6227 9.34659 64.517 12.9047 64.517C16.4629 64.517 19.3563 61.6227 19.3563 58.0654C19.3563 54.5072 16.4629 51.6138 12.9047 51.6138C9.34659 51.6138 6.45312 54.5072 6.45312 58.0654ZM16.1305 58.0654C16.1305 59.8445 14.6838 61.2912 12.9047 61.2912C11.1257 61.2912 9.67893 59.8445 9.67893 58.0654C9.67893 56.2863 11.1257 54.8396 12.9047 54.8396C14.6838 54.8396 16.1305 56.2863 16.1305 58.0654Z" fill="white"/>
<path d="M39.8513 11.764C39.2204 11.1331 38.2014 11.1331 37.5705 11.764L0.474121 48.8604L2.75485 51.1411L38.7109 15.1843L42.4092 18.8833C42.8707 19.3441 43.5622 19.4811 44.167 19.233C44.7687 18.9834 45.1625 18.3943 45.1625 17.743V1.61411C45.1625 0.723398 44.4395 0.0012207 43.5496 0.0012207H27.4207C26.7686 0.0012207 26.1803 0.394205 25.9299 0.995887C25.6802 1.59915 25.8188 2.29297 26.2803 2.75447L29.9786 6.45277L0.474121 35.9573L2.75485 38.238L33.3997 7.59313C34.0297 6.96231 34.0297 5.94244 33.3997 5.31241L31.3143 3.227H41.9367V13.8494L39.8513 11.764Z" fill="white"/>
</g>
<defs>
<clipPath id="clip0">
<rect width="100" height="100" fill="white"/>
</clipPath>
</defs>
</svg>
