<svg width="100" height="100" viewBox="0 0 100 100" fill="none" xmlns="http://www.w3.org/2000/svg">
<g clip-path="url(#clip0)">
<path d="M80.646 19.3561C85.9833 19.3561 90.3235 15.0151 90.3235 9.67864C90.3235 4.34141 85.9833 0.00121784 80.646 0.00121784C75.3088 0.00121784 70.9686 4.34141 70.9686 9.67864C70.9686 15.0151 75.3088 19.3561 80.646 19.3561ZM80.646 3.22702C84.2042 3.22702 87.0977 6.12048 87.0977 9.67864C87.0977 13.236 84.2042 16.1302 80.646 16.1302C77.0879 16.1302 74.1944 13.236 74.1944 9.67864C74.1944 6.12048 77.0879 3.22702 80.646 3.22702Z" fill="#001535"/>
<path d="M96.7631 28.8443C96.7213 28.4828 96.5583 28.1473 96.3023 27.893L91.4637 23.0543C91.162 22.7511 90.7502 22.5818 90.3233 22.5818H70.9687C70.541 22.5818 70.1299 22.7511 69.8283 23.0543L64.9896 27.893C64.7329 28.1489 64.5699 28.4844 64.5281 28.8443L61.3024 56.2634C61.2488 56.7218 61.3929 57.1793 61.6993 57.5227C62.0041 57.8684 62.4427 58.0653 62.9042 58.0653H70.7718L66.1394 98.2017C66.0875 98.6584 66.2316 99.116 66.5379 99.4602C66.8443 99.8035 67.283 100 67.7429 100H77.4202C78.2589 100 78.9567 99.3586 79.0284 98.5214L80.646 79.1006L82.2636 98.523C82.3345 99.3586 83.033 100 83.8718 100H93.5491C94.0082 100 94.4469 99.8035 94.754 99.4617C95.0604 99.1191 95.2037 98.66 95.1517 98.2032L90.5202 58.0653H98.3878C98.8485 58.0653 99.2879 57.8684 99.5927 57.5251C99.8991 57.1809 100.042 56.7218 99.9888 56.265L96.7631 28.8443ZM90.3233 54.8395V32.2591H87.0975V56.4524C87.0975 56.5131 87.1007 56.5761 87.107 56.6375L91.7393 96.7746H85.3555L82.2542 59.5443C82.1825 58.7072 81.4847 58.0653 80.646 58.0653C79.8073 58.0653 79.1087 58.7072 79.0378 59.5443L75.9365 96.7746H69.5527L74.1842 56.6375C74.1913 56.5761 74.1944 56.5131 74.1944 56.4524V32.2591H70.9687V54.8395H64.7187L67.6665 29.7768L71.6365 25.8075H89.6555L93.6247 29.7768L96.5733 54.8395H90.3233Z" fill="#001535"/>
<path d="M55.9801 50.4732L52.7544 47.2475C52.4527 46.9443 52.0408 46.7749 51.614 46.7749H35.4851C35.0575 46.7749 34.6464 46.9443 34.3448 47.2475L31.119 50.4732C30.893 50.6985 30.7402 50.9844 30.6788 51.297L27.453 67.4259C27.3577 67.9 27.4805 68.3922 27.7869 68.7647C28.0932 69.1388 28.5492 69.3554 29.0336 69.3554H35.4851V70.7808L29.0753 98.018C28.9627 98.4968 29.0753 99.0017 29.3817 99.3883C29.688 99.7742 30.1527 100 30.6465 100H38.7109C39.4866 100 40.1529 99.4466 40.2962 98.6835L43.5496 81.3323L46.8029 98.6835C46.9462 99.4466 47.6125 100 48.3882 100H56.4527C56.9457 100 57.4103 99.7742 57.7167 99.3883C58.023 99.0017 58.1364 98.4968 58.023 98.018L51.614 70.7808V69.3554H58.0655C58.5491 69.3554 59.0059 69.1388 59.3122 68.7647C59.6186 68.3922 59.7414 67.9 59.6461 67.4259L56.4204 51.297C56.3589 50.9844 56.2054 50.6985 55.9801 50.4732ZM51.614 66.1296V54.8394H48.3882V70.9683C48.3882 71.0919 48.4024 71.2163 48.43 71.3376L54.4153 96.7745H49.727L45.1349 72.2843C44.9915 71.5211 44.3253 70.9683 43.5496 70.9683C42.7738 70.9683 42.1076 71.5211 41.9642 72.2843L37.3721 96.7745H32.683L38.6684 71.3376C38.6959 71.2163 38.7109 71.0919 38.7109 70.9683V54.8394H35.4851V66.1296H31.0009L33.7462 52.4082L36.153 50.0007H50.9462L53.3545 52.4082L56.0975 66.1296H51.614Z" fill="#001535"/>
<path d="M23.4766 71.2394L18.638 68.0136C18.3741 67.8372 18.0607 67.7427 17.7433 67.7427H8.066C7.74783 67.7427 7.43518 67.8372 7.17056 68.0136L2.3319 71.2394C1.94128 71.4985 1.68533 71.9151 1.62547 72.3813L0.0125858 85.2844C-0.0456923 85.7436 0.0984279 86.2051 0.404782 86.5516C0.711136 86.8989 1.15137 87.0974 1.61445 87.0974H5.70416L4.84495 98.2631C4.81108 98.7113 4.96387 99.1531 5.26943 99.4823C5.57579 99.813 6.00421 100 6.45311 100H19.3562C19.8043 100 20.2335 99.813 20.5399 99.4838C20.8447 99.1531 20.9998 98.7113 20.9644 98.2647L20.1044 87.0974H24.1949C24.6579 87.0974 25.0982 86.8989 25.4045 86.5516C25.7109 86.2051 25.8527 85.7436 25.7959 85.2844L24.1831 72.3813C24.124 71.9151 23.8657 71.4985 23.4766 71.2394ZM19.8579 83.8716L19.3515 77.2956L16.1352 77.5421L17.6142 96.7747H14.5175V87.0974H11.2918V96.7747H8.19516L9.67416 77.5437L6.45784 77.2972L5.95145 83.8716H3.44155L4.73705 73.513L8.55427 70.9685H17.2558L21.0738 73.513L22.367 83.8716H19.8579Z" fill="#001535"/>
<path d="M35.4851 35.4849C35.4851 39.9315 39.1023 43.5495 43.5496 43.5495C47.9961 43.5495 51.6141 39.9315 51.6141 35.4849C51.6141 31.0377 47.9961 27.4204 43.5496 27.4204C39.1023 27.4204 35.4851 31.0377 35.4851 35.4849ZM48.3883 35.4849C48.3883 38.1524 46.2171 40.3237 43.5496 40.3237C40.8814 40.3237 38.7109 38.1524 38.7109 35.4849C38.7109 32.8167 40.8814 30.6462 43.5496 30.6462C46.2171 30.6462 48.3883 32.8167 48.3883 35.4849Z" fill="#001535"/>
<path d="M6.45325 58.0653C6.45325 61.6227 9.34671 64.5169 12.9049 64.5169C16.463 64.5169 19.3565 61.6227 19.3565 58.0653C19.3565 54.5072 16.463 51.6137 12.9049 51.6137C9.34671 51.6137 6.45325 54.5072 6.45325 58.0653ZM16.1307 58.0653C16.1307 59.8444 14.6839 61.2911 12.9049 61.2911C11.1258 61.2911 9.67905 59.8444 9.67905 58.0653C9.67905 56.2862 11.1258 54.8395 12.9049 54.8395C14.6839 54.8395 16.1307 56.2862 16.1307 58.0653Z" fill="#001535"/>
<path d="M39.8513 11.764C39.2204 11.1331 38.2014 11.1331 37.5705 11.764L0.474121 48.8604L2.75485 51.1411L38.7109 15.1843L42.4092 18.8833C42.8707 19.3441 43.5622 19.4811 44.167 19.233C44.7687 18.9834 45.1625 18.3943 45.1625 17.743V1.61411C45.1625 0.723395 44.4395 0.00121784 43.5496 0.00121784H27.4207C26.7686 0.00121784 26.1803 0.394202 25.9299 0.995884C25.6802 1.59914 25.8188 2.29297 26.2803 2.75447L29.9786 6.45277L0.474121 35.9573L2.75485 38.238L33.3997 7.59313C34.0297 6.96231 34.0297 5.94244 33.3997 5.31241L31.3143 3.22699H41.9367V13.8494L39.8513 11.764Z" fill="#001535"/>
</g>
<defs>
<clipPath id="clip0">
<rect width="100" height="100" fill="white"/>
</clipPath>
</defs>
</svg>
